<svg xmlns="http://www.w3.org/2000/svg" viewBox="0 0 1000 280" role="img" aria-label="Taweesak (Meo)">
  <defs>
    <radialGradient id="neb1" cx="50%" cy="50%" r="50%">
      <stop offset="0%" stop-color="#7c3aed" stop-opacity="0.45"/>
      <stop offset="100%" stop-color="#7c3aed" stop-opacity="0"/>
    </radialGradient>
    <radialGradient id="neb2" cx="50%" cy="50%" r="50%">
      <stop offset="0%" stop-color="#c026d3" stop-opacity="0.30"/>
      <stop offset="100%" stop-color="#c026d3" stop-opacity="0"/>
    </radialGradient>
    <radialGradient id="vignette" cx="50%" cy="50%" r="72%">
      <stop offset="55%" stop-color="#000000" stop-opacity="0"/>
      <stop offset="100%" stop-color="#000000" stop-opacity="0.55"/>
    </radialGradient>
    <pattern id="grid" width="32" height="32" patternUnits="userSpaceOnUse">
      <path d="M 32 0 L 0 0 0 32" fill="none" stroke="#8b5cf6" stroke-opacity="0.12" stroke-width="1"/>
    </pattern>
    <clipPath id="frame"><rect width="1000" height="280"/></clipPath>
    <filter id="glow" x="-50%" y="-50%" width="200%" height="200%">
      <feGaussianBlur stdDeviation="9"/>
    </filter>
  </defs>

  <g clip-path="url(#frame)">
  <rect width="1000" height="280" fill="#08050f"/>
  <rect width="1000" height="280" fill="url(#grid)"/>
  <ellipse cx="290" cy="80" rx="380" ry="190" fill="url(#neb1)"/>
  <ellipse cx="720" cy="205" rx="340" ry="170" fill="url(#neb2)"/>

  <rect x="116.7" y="119.9" width="5.5" height="5.5" fill="#e9d5ff" opacity="0.24"/>
  <rect x="241.9" y="112.9" width="2.2" height="2.2" fill="#c084fc" opacity="0.07"/>
  <rect x="91.2" y="84.3" width="5.1" height="5.1" fill="#e9d5ff" opacity="0.26"/>
  <rect x="243.8" y="217.8" width="5.8" height="5.8" fill="#c084fc" opacity="0.15"/>
  <rect x="384.8" y="23.7" width="7.2" height="7.2" fill="#c084fc" opacity="0.06" transform="rotate(45 388.4 27.3)"/>
  <rect x="308.3" y="73.1" width="2.3" height="2.3" fill="#f0abfc" opacity="0.17"/>
  <rect x="248.6" y="80.8" width="6.7" height="6.7" fill="#c084fc" opacity="0.28" transform="rotate(45 251.9 84.2)"/>
  <rect x="152.5" y="75.4" width="5.7" height="5.7" fill="#a78bfa" opacity="0.20"/>
  <rect x="167.1" y="99.7" width="8.9" height="8.9" fill="#7c3aed" opacity="0.27"/>
  <rect x="385.6" y="43.5" width="5.8" height="5.8" fill="#f0abfc" opacity="0.21"/>
  <rect x="426.0" y="33.3" width="8.5" height="8.5" fill="#e9d5ff" opacity="0.20" transform="rotate(45 430.3 37.6)"/>
  <rect x="62.2" y="89.0" width="3.2" height="3.2" fill="#c084fc" opacity="0.20" transform="rotate(45 63.8 90.6)"/>
  <rect x="187.7" y="105.6" width="2.8" height="2.8" fill="#7c3aed" opacity="0.14"/>
  <rect x="215.0" y="97.0" width="2.7" height="2.7" fill="#c084fc" opacity="0.11" transform="rotate(45 216.3 98.3)"/>
  <rect x="584.8" y="49.7" width="8.1" height="8.1" fill="#a78bfa" opacity="0.16"/>
  <rect x="131.9" y="154.4" width="7.3" height="7.3" fill="#e9d5ff" opacity="0.08" transform="rotate(45 135.6 158.1)"/>
  <rect x="115.2" y="85.5" width="4.9" height="4.9" fill="#e9d5ff" opacity="0.29" transform="rotate(45 117.7 87.9)"/>
  <rect x="185.7" y="134.7" width="6.2" height="6.2" fill="#c084fc" opacity="0.09"/>
  <rect x="33.6" y="127.4" width="8.9" height="8.9" fill="#7c3aed" opacity="0.16"/>
  <rect x="90.1" y="125.6" width="8.3" height="8.3" fill="#e9d5ff" opacity="0.27" transform="rotate(45 94.3 129.8)"/>
  <rect x="388.8" y="41.7" width="4.5" height="4.5" fill="#7c3aed" opacity="0.19" transform="rotate(45 391.1 43.9)"/>
  <rect x="145.9" y="122.8" width="2.4" height="2.4" fill="#a78bfa" opacity="0.25"/>
  <rect x="753.2" y="233.7" width="3.0" height="3.0" fill="#7c3aed" opacity="0.10" transform="rotate(45 754.7 235.2)"/>
  <rect x="680.0" y="226.9" width="4.5" height="4.5" fill="#a78bfa" opacity="0.07"/>
  <rect x="877.9" y="225.3" width="7.3" height="7.3" fill="#7c3aed" opacity="0.06" transform="rotate(45 881.6 229.0)"/>
  <rect x="884.8" y="217.2" width="4.8" height="4.8" fill="#f0abfc" opacity="0.19"/>
  <rect x="745.7" y="234.8" width="4.5" height="4.5" fill="#e9d5ff" opacity="0.07"/>
  <rect x="753.3" y="242.3" width="6.5" height="6.5" fill="#f0abfc" opacity="0.25"/>
  <rect x="835.1" y="109.6" width="2.4" height="2.4" fill="#7c3aed" opacity="0.28"/>
  <rect x="610.4" y="200.9" width="4.6" height="4.6" fill="#c084fc" opacity="0.28"/>
  <rect x="826.0" y="260.2" width="3.8" height="3.8" fill="#a78bfa" opacity="0.14"/>
  <rect x="930.3" y="113.6" width="7.1" height="7.1" fill="#c084fc" opacity="0.18"/>
  <rect x="941.2" y="261.7" width="4.1" height="4.1" fill="#a78bfa" opacity="0.18"/>
  <rect x="635.0" y="207.9" width="5.1" height="5.1" fill="#7c3aed" opacity="0.26" transform="rotate(45 637.6 210.5)"/>
  <rect x="706.6" y="206.3" width="5.7" height="5.7" fill="#f0abfc" opacity="0.13"/>
  <rect x="863.2" y="146.4" width="5.5" height="5.5" fill="#f0abfc" opacity="0.15" transform="rotate(45 866.0 149.2)"/>
  <rect x="476.7" y="233.7" width="2.3" height="2.3" fill="#a78bfa" opacity="0.08" transform="rotate(45 477.9 234.9)"/>
  <rect x="854.0" y="175.0" width="3.3" height="3.3" fill="#c084fc" opacity="0.22"/>
  <rect x="823.9" y="237.6" width="6.5" height="6.5" fill="#c084fc" opacity="0.26" transform="rotate(45 827.1 240.8)"/>
  <rect x="852.0" y="176.4" width="7.9" height="7.9" fill="#a78bfa" opacity="0.29" transform="rotate(45 855.9 180.3)"/>
  <rect x="767.1" y="100.7" width="3.3" height="3.3" fill="#f0abfc" opacity="0.23"/>
  <rect x="596.7" y="213.9" width="3.4" height="3.4" fill="#a78bfa" opacity="0.26" transform="rotate(45 598.4 215.5)"/>
  <rect x="213.7" y="147.2" width="4.2" height="4.2" fill="#a78bfa" opacity="0.11" transform="rotate(45 215.9 149.4)"/>
  <rect x="601.8" y="30.7" width="8.3" height="8.3" fill="#a78bfa" opacity="0.25"/>
  <rect x="553.1" y="241.5" width="7.9" height="7.9" fill="#e9d5ff" opacity="0.23" transform="rotate(45 557.0 245.4)"/>
  <rect x="824.9" y="108.0" width="7.0" height="7.0" fill="#7c3aed" opacity="0.26"/>
  <rect x="919.7" y="245.4" width="8.9" height="8.9" fill="#f0abfc" opacity="0.14"/>
  <rect x="959.2" y="100.8" width="2.8" height="2.8" fill="#e9d5ff" opacity="0.17" transform="rotate(45 960.5 102.2)"/>
  <rect x="987.8" y="32.3" width="6.1" height="6.1" fill="#f0abfc" opacity="0.06" transform="rotate(45 990.9 35.4)"/>
  <rect x="199.2" y="259.6" width="4.0" height="4.0" fill="#c084fc" opacity="0.22" transform="rotate(45 201.2 261.6)"/>
  <rect x="928.7" y="96.8" width="5.6" height="5.6" fill="#c084fc" opacity="0.08"/>
  <rect x="368.5" y="258.1" width="6.5" height="6.5" fill="#a78bfa" opacity="0.07" transform="rotate(45 371.8 261.4)"/>
  <rect x="916.2" y="22.7" width="7.0" height="7.0" fill="#a78bfa" opacity="0.18" transform="rotate(45 919.7 26.2)"/>
  <rect x="118.5" y="247.1" width="8.2" height="8.2" fill="#a78bfa" opacity="0.16" transform="rotate(45 122.6 251.2)"/>
  <rect x="486.5" y="207.6" width="7.9" height="7.9" fill="#e9d5ff" opacity="0.26"/>
  <rect x="647.1" y="224.9" width="8.3" height="8.3" fill="#e9d5ff" opacity="0.18"/>
  <rect x="882.3" y="236.8" width="3.0" height="3.0" fill="#7c3aed" opacity="0.28"/>

  <text x="500" y="166" text-anchor="middle" font-family="'CMU Serif', 'Latin Modern Roman', 'Computer Modern', Georgia, serif" font-size="58" letter-spacing="3" fill="#8b5cf6" opacity="0.65" filter="url(#glow)">Taweesak (Meo)</text>
  <text x="500" y="166" text-anchor="middle" font-family="'CMU Serif', 'Latin Modern Roman', 'Computer Modern', Georgia, serif" font-size="58" letter-spacing="3" fill="#f8f7ff">Taweesak <tspan fill="#c084fc">(Meo)</tspan></text>

  <rect width="1000" height="280" fill="url(#vignette)"/>
  </g>
</svg>
